<svg width="213" height="79" viewBox="0 0 213 79" fill="none" xmlns="http://www.w3.org/2000/svg">
<g clip-path="url(#clip0_94_23)">
<path d="M16.7193 34.3659L20.2876 29.9742C20.2876 29.9742 17.3552 27.7238 15.0724 26.9548C12.8284 26.1988 9.85723 26.3144 9.03377 26.4058C7.07505 26.6233 5.33796 27.3568 4.36751 28.3273C3.54406 29.1507 2.59633 30.1346 2.17163 31.6211C1.62266 33.5426 1.89715 35.561 2.17163 36.2874C2.81687 37.995 3.67213 38.843 5.19096 39.8556C8.4848 42.0516 12.3276 42.0516 13.7 43.9729C14.079 44.5035 14.1585 44.9943 13.9745 45.6198C13.7143 46.5044 12.964 46.8492 12.0531 46.9922C10.3045 47.2667 9.09883 47.1034 7.38687 46.4432C5.66612 45.7798 3.54406 43.6984 3.54406 43.6984L0.250244 47.8157C0.250244 47.8157 3.0358 51.0218 5.46545 51.9329C7.66135 52.7564 8.95785 52.8552 11.2296 52.7564C12.973 52.6806 15.0724 52.3447 15.8959 51.9329C16.9938 51.384 19.4726 49.7116 20.2876 47.2667C20.7296 45.9408 20.6218 44.0946 20.5621 43.6985C20.2549 41.6596 19.4642 40.1302 18.0918 39.0322C15.648 37.0771 12.2669 37.0701 9.03377 34.9149C8.21032 34.366 8.30178 33.542 8.4848 32.9931C8.75929 32.1696 9.85723 31.484 12.3276 31.8951C13.9745 32.1692 16.7193 34.3659 16.7193 34.3659Z" fill="black" stroke="black" stroke-width="0.7" stroke-linecap="round"/>
<path d="M49.7139 39.7891C49.7139 47.2172 43.6923 53.2388 36.2642 53.2388C28.8361 53.2388 22.8145 47.2172 22.8145 39.7891C22.8145 32.3611 28.8361 26.3394 36.2642 26.3394C43.6923 26.3394 49.7139 32.3611 49.7139 39.7891ZM29.6178 39.7891C29.6178 43.4598 32.5935 46.4355 36.2642 46.4355C39.9349 46.4355 42.9106 43.4598 42.9106 39.7891C42.9106 36.1184 39.9349 33.1427 36.2642 33.1427C32.5935 33.1427 29.6178 36.1184 29.6178 39.7891Z" fill="black"/>
<path d="M51.9097 27.0104H58.223V29.2063C58.223 29.2063 59.4868 28.0891 60.4189 27.5594C61.4224 26.9888 62.2991 26.6513 63.4382 26.4614C65.0851 26.1868 67.5555 26.4614 67.5555 26.4614C67.5555 26.4614 69.2024 26.6443 70.5748 27.5594C72.5391 28.8692 72.7707 30.0297 72.7707 30.0297C72.7707 30.0297 74.3754 28.1255 75.79 27.5594C77.2042 26.9932 77.9887 26.7744 78.2604 26.7355C80.1818 26.4607 82.3777 26.4614 84.0246 26.7355C85.784 27.0284 87.5874 28.164 88.1418 28.6569C90.6122 30.8528 90.6122 34.147 90.6122 34.147V51.9885H83.7501V35.7939C83.7501 35.7939 83.4756 32.5001 79.3583 32.5001C75.2411 32.5001 74.9666 35.7939 74.9666 35.7939V51.9885H67.83V35.7939C67.83 35.7939 67.5555 32.7746 63.7127 32.7746C59.0465 32.7746 59.0465 36.3429 59.0465 36.3429V51.9885H51.9097V27.0104Z" fill="black"/>
<path d="M114.327 21.0151H114.327C103.958 21.0151 95.553 29.4206 95.553 39.7892V39.7892C95.553 50.1578 103.958 58.5632 114.327 58.5632H114.327C124.696 58.5632 133.101 50.1578 133.101 39.7892V39.7892C133.101 29.4206 124.696 21.0151 114.327 21.0151Z" fill="black"/>
<mask id="mask0_94_23" style="mask-type:luminance" maskUnits="userSpaceOnUse" x="94" y="20" width="41" height="40">
<path d="M114.327 58.5632C124.696 58.5632 133.101 50.1581 133.101 39.7892C133.101 29.4203 124.696 21.0151 114.327 21.0151C103.958 21.0151 95.553 29.4203 95.553 39.7892C95.553 50.1581 103.958 58.5632 114.327 58.5632Z" fill="white" stroke="white" stroke-width="2" stroke-linejoin="round"/>
</mask>
<g mask="url(#mask0_94_23)">
<g filter="url(#filter0_i_94_23)">
<path d="M91.7981 39.7891C91.7981 27.3468 101.884 17.2603 114.327 17.2603C126.769 17.2603 136.856 27.3468 136.856 39.7891C136.856 52.2315 126.769 62.318 114.327 62.318C101.884 62.318 91.7981 52.2315 91.7981 39.7891Z" fill="#E80303"/>
</g>
<g filter="url(#filter1_i_94_23)">
<path d="M95.0042 39.6799C95.0042 28.7651 103.852 19.917 114.767 19.917C125.682 19.917 134.53 28.7651 134.53 39.6799C134.53 50.5946 125.682 59.4428 114.767 59.4428C103.852 59.4428 95.0042 50.5946 95.0042 39.6799Z" fill="#E80303"/>
</g>
<g filter="url(#filter2_ii_94_23)">
<path d="M95.553 39.1309C95.553 28.5193 104.155 19.917 114.767 19.917C125.378 19.917 133.981 28.5193 133.981 39.1309C133.981 49.7425 125.378 58.3448 114.767 58.3448C104.155 58.3448 95.553 49.7425 95.553 39.1309Z" fill="#E80303"/>
</g>
</g>
<g filter="url(#filter3_dif_94_23)">
<path d="M114.767 22.1133C109.81 22.1133 103.788 26.2305 103.788 26.2305C103.788 26.2305 110.815 22.8963 115.59 23.2174C119.446 23.4767 122.464 24.6018 125.197 27.3347C126.021 28.1581 128.491 32.2753 128.491 32.2753C128.491 32.2753 126.96 27.9294 124.923 25.9622C122.116 23.2518 119.982 22.1133 114.767 22.1133Z" fill="black"/>
<path d="M130.962 38.3142C131.013 36.4801 130.413 33.6479 130.413 33.6479C130.413 33.6479 131.556 36.4154 131.511 38.3142C131.464 40.2462 130.138 42.9805 130.138 42.9805C130.138 42.9805 130.909 40.164 130.962 38.3142Z" fill="black"/>
</g>
<path d="M138.042 27.6359H144.355V29.8318C144.355 29.8318 145.619 28.7146 146.551 28.1849C147.554 27.6143 148.431 27.2768 149.57 27.0869C151.217 26.8122 153.687 27.0869 153.687 27.0869C153.687 27.0869 155.334 27.2697 156.706 28.1849C156.706 28.1849 159.068 29.2842 160.275 32.1801C160.924 33.7368 161.098 36.4194 161.098 36.4194V52.614H153.962V36.4194C153.962 36.4194 153.687 33.4001 149.844 33.4001C145.178 33.4001 145.178 36.9684 145.178 36.9684V52.614H138.042V27.6359Z" fill="black"/>
<g filter="url(#filter4_dii_94_23)">
<path d="M180.584 50.3754C181.236 50.3754 181.904 50.3265 182.588 50.2288C183.272 50.0986 183.825 49.9682 184.249 49.838V53.1115C183.793 53.3395 183.141 53.5186 182.294 53.6489C181.447 53.8118 180.633 53.8932 179.852 53.8932C178.483 53.8932 177.213 53.6652 176.041 53.2092C174.9 52.7206 173.972 51.89 173.256 50.7174C172.539 49.5448 172.181 47.8999 172.181 45.7827V30.539H168.468V28.4869L172.23 26.7769L173.94 21.207H176.48V27.2166H184.053V30.539H176.48V45.685C176.48 47.281 176.855 48.4699 177.604 49.2517C178.386 50.0008 179.379 50.3754 180.584 50.3754ZM195.258 53.4046L185.34 27.2166H189.932L195.502 42.6558C195.763 43.3724 196.04 44.1704 196.333 45.0499C196.626 45.9293 196.887 46.7762 197.114 47.5905C197.343 48.3722 197.505 49.0399 197.603 49.5937H197.798C197.929 49.0399 198.108 48.3559 198.336 47.5416C198.597 46.7273 198.873 45.8804 199.166 45.001C199.493 44.1216 199.769 43.3398 199.997 42.6558L205.567 27.2166H210.16L200.192 53.4046H195.258Z" fill="#E3260E"/>
</g>
<path d="M110.572 39.7899V33.2866L116.204 36.5383L121.836 39.7899L116.204 43.0416L110.572 46.2932V39.7899Z" fill="white" stroke="white" stroke-width="2" stroke-linejoin="round"/>
</g>
<defs>
<filter id="filter0_i_94_23" x="91.7981" y="14.2603" width="48.0576" height="48.0576" filterUnits="userSpaceOnUse" color-interpolation-filters="sRGB">
<feFlood flood-opacity="0" result="BackgroundImageFix"/>
<feBlend mode="normal" in="SourceGraphic" in2="BackgroundImageFix" result="shape"/>
<feColorMatrix in="SourceAlpha" type="matrix" values="0 0 0 0 0 0 0 0 0 0 0 0 0 0 0 0 0 0 127 0" result="hardAlpha"/>
<feOffset dx="3" dy="-3"/>
<feGaussianBlur stdDeviation="4"/>
<feComposite in2="hardAlpha" operator="arithmetic" k2="-1" k3="1"/>
<feColorMatrix type="matrix" values="0 0 0 0 0.208044 0 0 0 0 0.00874878 0 0 0 0 0.00874878 0 0 0 1 0"/>
<feBlend mode="normal" in2="shape" result="effect1_innerShadow_94_23"/>
</filter>
<filter id="filter1_i_94_23" x="95.0042" y="16.917" width="42.5259" height="42.5259" filterUnits="userSpaceOnUse" color-interpolation-filters="sRGB">
<feFlood flood-opacity="0" result="BackgroundImageFix"/>
<feBlend mode="normal" in="SourceGraphic" in2="BackgroundImageFix" result="shape"/>
<feColorMatrix in="SourceAlpha" type="matrix" values="0 0 0 0 0 0 0 0 0 0 0 0 0 0 0 0 0 0 127 0" result="hardAlpha"/>
<feOffset dx="3" dy="-3"/>
<feGaussianBlur stdDeviation="4"/>
<feComposite in2="hardAlpha" operator="arithmetic" k2="-1" k3="1"/>
<feColorMatrix type="matrix" values="0 0 0 0 0.208044 0 0 0 0 0.00874878 0 0 0 0 0.00874878 0 0 0 1 0"/>
<feBlend mode="normal" in2="shape" result="effect1_innerShadow_94_23"/>
</filter>
<filter id="filter2_ii_94_23" x="95.553" y="16.917" width="40.4277" height="45.4277" filterUnits="userSpaceOnUse" color-interpolation-filters="sRGB">
<feFlood flood-opacity="0" result="BackgroundImageFix"/>
<feBlend mode="normal" in="SourceGraphic" in2="BackgroundImageFix" result="shape"/>
<feColorMatrix in="SourceAlpha" type="matrix" values="0 0 0 0 0 0 0 0 0 0 0 0 0 0 0 0 0 0 127 0" result="hardAlpha"/>
<feOffset dx="2" dy="-3"/>
<feGaussianBlur stdDeviation="4"/>
<feComposite in2="hardAlpha" operator="arithmetic" k2="-1" k3="1"/>
<feColorMatrix type="matrix" values="0 0 0 0 0.208044 0 0 0 0 0.00874878 0 0 0 0 0.00874878 0 0 0 1 0"/>
<feBlend mode="normal" in2="shape" result="effect1_innerShadow_94_23"/>
<feColorMatrix in="SourceAlpha" type="matrix" values="0 0 0 0 0 0 0 0 0 0 0 0 0 0 0 0 0 0 127 0" result="hardAlpha"/>
<feOffset dy="4"/>
<feGaussianBlur stdDeviation="2.75"/>
<feComposite in2="hardAlpha" operator="arithmetic" k2="-1" k3="1"/>
<feColorMatrix type="matrix" values="0 0 0 0 0.592692 0 0 0 0 0.0138338 0 0 0 0 0.0138338 0 0 0 1 0"/>
<feBlend mode="normal" in2="effect1_innerShadow_94_23" result="effect2_innerShadow_94_23"/>
</filter>
<filter id="filter3_dif_94_23" x="100.288" y="15.6133" width="40.7241" height="33.8672" filterUnits="userSpaceOnUse" color-interpolation-filters="sRGB">
<feFlood flood-opacity="0" result="BackgroundImageFix"/>
<feColorMatrix in="SourceAlpha" type="matrix" values="0 0 0 0 0 0 0 0 0 0 0 0 0 0 0 0 0 0 127 0" result="hardAlpha"/>
<feOffset dx="3"/>
<feGaussianBlur stdDeviation="3.25"/>
<feComposite in2="hardAlpha" operator="out"/>
<feColorMatrix type="matrix" values="0 0 0 0 1 0 0 0 0 1 0 0 0 0 1 0 0 0 1 0"/>
<feBlend mode="normal" in2="BackgroundImageFix" result="effect1_dropShadow_94_23"/>
<feBlend mode="normal" in="SourceGraphic" in2="effect1_dropShadow_94_23" result="shape"/>
<feColorMatrix in="SourceAlpha" type="matrix" values="0 0 0 0 0 0 0 0 0 0 0 0 0 0 0 0 0 0 127 0" result="hardAlpha"/>
<feOffset dy="4"/>
<feGaussianBlur stdDeviation="2.8"/>
<feComposite in2="hardAlpha" operator="arithmetic" k2="-1" k3="1"/>
<feColorMatrix type="matrix" values="0 0 0 0 1 0 0 0 0 1 0 0 0 0 1 0 0 0 1 0"/>
<feBlend mode="normal" in2="shape" result="effect2_innerShadow_94_23"/>
<feGaussianBlur stdDeviation="0.45" result="effect3_foregroundBlur_94_23"/>
</filter>
<filter id="filter4_dii_94_23" x="167.768" y="17.507" width="47.0919" height="40.386" filterUnits="userSpaceOnUse" color-interpolation-filters="sRGB">
<feFlood flood-opacity="0" result="BackgroundImageFix"/>
<feColorMatrix in="SourceAlpha" type="matrix" values="0 0 0 0 0 0 0 0 0 0 0 0 0 0 0 0 0 0 127 0" result="hardAlpha"/>
<feOffset dx="2" dy="-1"/>
<feGaussianBlur stdDeviation="1.35"/>
<feComposite in2="hardAlpha" operator="out"/>
<feColorMatrix type="matrix" values="0 0 0 0 1 0 0 0 0 1 0 0 0 0 1 0 0 0 0.35 0"/>
<feBlend mode="normal" in2="BackgroundImageFix" result="effect1_dropShadow_94_23"/>
<feBlend mode="normal" in="SourceGraphic" in2="effect1_dropShadow_94_23" result="shape"/>
<feColorMatrix in="SourceAlpha" type="matrix" values="0 0 0 0 0 0 0 0 0 0 0 0 0 0 0 0 0 0 127 0" result="hardAlpha"/>
<feOffset/>
<feGaussianBlur stdDeviation="1.1"/>
<feComposite in2="hardAlpha" operator="arithmetic" k2="-1" k3="1"/>
<feColorMatrix type="matrix" values="0 0 0 0 1 0 0 0 0 1 0 0 0 0 1 0 0 0 1 0"/>
<feBlend mode="normal" in2="shape" result="effect2_innerShadow_94_23"/>
<feColorMatrix in="SourceAlpha" type="matrix" values="0 0 0 0 0 0 0 0 0 0 0 0 0 0 0 0 0 0 127 0" result="hardAlpha"/>
<feOffset dy="27"/>
<feGaussianBlur stdDeviation="2"/>
<feComposite in2="hardAlpha" operator="arithmetic" k2="-1" k3="1"/>
<feColorMatrix type="matrix" values="0 0 0 0 0.879522 0 0 0 0 0.107925 0 0 0 0 0.0235978 0 0 0 1 0"/>
<feBlend mode="normal" in2="effect2_innerShadow_94_23" result="effect3_innerShadow_94_23"/>
</filter>
<clipPath id="clip0_94_23">
<rect width="213" height="41.9101" fill="white" transform="translate(0 18.5449)"/>
</clipPath>
</defs>
</svg>
